<?xml version="1.0" encoding="UTF-8"?>
<svg xmlns="http://www.w3.org/2000/svg" xmlns:xlink="http://www.w3.org/1999/xlink" width="400" height="400" viewBox="0 0 400 400" version="1.1">
<g id="surface1">
<path style=" stroke:none;fill-rule:nonzero;fill:rgb(0%,32.941176%,41.960784%);fill-opacity:1;" d="M 368.199219 306.582031 C 346.453125 306.039062 329.597656 308.214844 315.460938 314.195312 C 311.382812 315.824219 304.859375 315.824219 304.316406 320.988281 C 306.492188 323.164062 306.761719 326.699219 308.664062 329.6875 C 311.929688 335.125 317.636719 342.464844 322.800781 346.273438 C 328.511719 350.621094 334.21875 354.96875 340.199219 358.777344 C 350.800781 365.300781 362.761719 369.105469 373.09375 375.632812 C 379.074219 379.433594 385.054688 384.332031 391.035156 388.410156 C 394.027344 390.582031 395.925781 394.117188 399.734375 395.476562 L 399.734375 394.660156 C 397.832031 392.214844 397.285156 388.679688 395.386719 385.960938 C 392.667969 383.242188 389.949219 380.796875 387.230469 378.078125 C 379.34375 367.476562 369.558594 358.234375 358.957031 350.621094 C 350.257812 344.640625 331.230469 336.484375 327.695312 326.425781 C 327.695312 326.425781 327.421875 326.15625 327.152344 325.882812 C 333.132812 325.339844 340.199219 323.164062 345.910156 321.535156 C 355.152344 319.085938 363.578125 319.628906 373.09375 317.183594 C 377.441406 316.097656 381.792969 314.738281 386.140625 313.378906 L 386.140625 310.933594 C 381.25 306.039062 377.714844 299.515625 372.550781 294.894531 C 358.6875 282.929688 343.460938 271.242188 327.695312 261.457031 C 319.265625 256.019531 308.394531 252.484375 299.421875 247.863281 C 296.160156 246.230469 290.722656 245.417969 288.820312 242.699219 C 283.925781 236.71875 281.207031 228.835938 277.675781 221.765625 C 269.792969 206.8125 262.179688 190.234375 255.382812 174.464844 C 250.492188 163.863281 247.5 153.261719 241.519531 143.476562 C 213.519531 97.261719 183.074219 69.261719 136.316406 41.804688 C 126.257812 36.097656 114.296875 33.648438 101.519531 30.660156 C 94.726562 30.386719 87.929688 29.84375 81.132812 29.574219 C 76.785156 27.667969 72.433594 22.503906 68.625 20.058594 C 53.132812 10.269531 13.171875 -10.929688 1.753906 17.066406 C -5.585938 34.738281 12.628906 52.136719 18.878906 61.105469 C 23.503906 67.359375 29.480469 74.425781 32.742188 81.496094 C 34.648438 86.113281 35.191406 91.011719 37.09375 95.902344 C 41.445312 107.863281 45.519531 121.183594 51.230469 132.332031 C 54.21875 138.039062 57.480469 144.019531 61.289062 149.183594 C 63.460938 152.171875 67.265625 153.535156 68.082031 158.425781 C 64.277344 163.863281 64.007812 172.019531 61.828125 178.816406 C 52.042969 209.535156 55.851562 247.59375 69.714844 270.15625 C 74.0625 276.949219 84.394531 291.902344 98.257812 286.195312 C 110.492188 281.300781 107.773438 265.804688 111.304688 252.214844 C 112.121094 248.949219 111.578125 246.777344 113.210938 244.601562 C 113.210938 244.875 113.210938 245.144531 113.210938 245.144531 C 117.015625 252.757812 120.820312 260.097656 124.355469 267.707031 C 132.78125 281.027344 147.460938 294.894531 159.695312 304.136719 C 166.21875 309.027344 171.382812 317.457031 179.539062 320.449219 L 179.539062 319.628906 L 178.996094 319.628906 C 177.363281 317.183594 174.917969 316.097656 172.742188 314.195312 C 167.851562 309.300781 162.414062 303.320312 158.609375 297.882812 C 147.191406 282.660156 137.132812 265.804688 128.160156 248.40625 C 123.8125 239.980469 120.003906 230.738281 116.472656 222.3125 C 114.839844 219.046875 114.839844 214.15625 112.121094 212.523438 C 108.042969 218.503906 102.0625 223.667969 99.074219 231.011719 C 93.910156 242.699219 93.363281 257.105469 91.460938 272.058594 C 90.375 272.332031 90.917969 272.058594 90.375 272.601562 C 81.675781 270.425781 78.683594 261.457031 75.421875 253.84375 C 67.265625 234.542969 65.90625 203.550781 72.976562 181.261719 C 74.878906 175.554688 83.035156 157.613281 79.773438 152.175781 C 78.140625 147.007812 72.703125 144.019531 69.714844 139.941406 C 66.179688 134.777344 62.375 128.253906 59.929688 122.542969 C 53.402344 107.320312 50.140625 90.464844 43.074219 75.242188 C 39.8125 68.171875 34.101562 60.835938 29.480469 54.3125 C 24.316406 46.972656 18.609375 41.804688 14.53125 33.105469 C 13.171875 30.117188 11.269531 25.222656 13.441406 21.960938 C 13.984375 19.785156 15.074219 18.972656 17.25 18.425781 C 20.78125 15.4375 30.839844 19.242188 34.375 20.871094 C 44.433594 24.949219 52.859375 28.757812 61.289062 34.464844 C 65.09375 37.183594 69.171875 42.347656 74.0625 43.707031 L 79.773438 43.707031 C 88.472656 45.609375 98.257812 44.253906 106.414062 46.699219 C 120.820312 51.316406 133.867188 58.117188 145.558594 65.457031 C 181.171875 88.019531 210.527344 120.097656 230.375 158.425781 C 233.636719 164.675781 234.996094 170.390625 237.988281 176.914062 C 243.695312 190.234375 250.761719 203.824219 256.472656 216.875 C 262.179688 229.648438 267.617188 242.699219 275.773438 253.300781 C 279.851562 259.007812 296.160156 262 303.5 264.992188 C 308.9375 267.4375 317.363281 269.613281 322.257812 272.601562 C 331.5 278.308594 340.742188 284.835938 349.441406 291.085938 C 353.792969 294.347656 367.382812 301.144531 368.199219 306.582031 Z M 368.199219 306.582031 "/>
<path style=" stroke:none;fill-rule:nonzero;fill:rgb(0%,32.941176%,41.960784%);fill-opacity:1;" d="M 90.917969 70.347656 C 86.292969 70.347656 83.035156 70.894531 79.769531 71.707031 C 79.769531 71.707031 79.769531 71.980469 79.769531 72.253906 L 80.316406 72.253906 C 82.492188 76.601562 86.292969 79.59375 89.011719 83.398438 C 91.1875 87.746094 93.089844 92.097656 95.265625 96.445312 C 95.539062 96.175781 95.808594 95.902344 95.808594 95.902344 C 99.617188 93.183594 101.519531 88.835938 101.519531 82.3125 C 99.886719 80.40625 99.617188 78.503906 98.257812 76.601562 C 96.625 73.882812 93.089844 72.523438 90.917969 70.347656 Z M 90.917969 70.347656 "/>
</g>
</svg>
