<?xml version="1.0" encoding="UTF-8"?>
<svg xmlns="http://www.w3.org/2000/svg" xmlns:xlink="http://www.w3.org/1999/xlink" width="400" height="400" viewBox="0 0 400 400" version="1.1">
<g id="surface1">
<path style=" stroke:none;fill-rule:evenodd;fill:rgb(100%,0%,0%);fill-opacity:1;" d="M 132.621094 315.207031 C 68.613281 315.207031 16.667969 263.390625 16.667969 199.363281 C 16.667969 135.332031 68.613281 83.332031 132.621094 83.332031 L 267.398438 83.332031 C 331.425781 83.332031 383.332031 135.332031 383.332031 199.363281 C 383.332031 263.390625 331.425781 315.207031 267.398438 315.207031 Z M 264.398438 274.308594 C 305.871094 274.308594 339.457031 240.8125 339.457031 199.363281 C 339.457031 157.910156 305.871094 124.230469 264.398438 124.230469 L 135.601562 124.230469 C 94.148438 124.230469 60.542969 157.910156 60.542969 199.363281 C 60.542969 240.8125 94.148438 274.308594 135.601562 274.308594 Z M 264.398438 274.308594 "/>
</g>
</svg>
