<?xml version="1.0" encoding="UTF-8"?>
<svg xmlns="http://www.w3.org/2000/svg" xmlns:xlink="http://www.w3.org/1999/xlink" width="400" height="400" viewBox="0 0 400 400" version="1.1">
<g id="surface1">
<path style=" stroke:none;fill-rule:nonzero;fill:rgb(0%,0%,0%);fill-opacity:1;" d="M 392.4375 239.523438 C 390.109375 232.480469 384.019531 227.574219 376.140625 226.398438 C 372.425781 225.84375 368.167969 226.078125 363.136719 227.117188 C 354.359375 228.925781 347.847656 229.617188 343.097656 229.75 C 361.03125 199.46875 375.613281 164.9375 384.011719 132.433594 C 397.585938 79.875 390.332031 55.933594 381.855469 45.101562 C 359.421875 16.4375 326.6875 1.035156 287.199219 0.5625 C 266.136719 0.304688 247.640625 4.464844 237.996094 7.457031 C 229.015625 5.871094 219.355469 4.988281 209.222656 4.824219 C 190.226562 4.519531 173.445312 8.660156 159.101562 17.171875 C 151.164062 14.488281 138.421875 10.703125 123.707031 8.285156 C 89.097656 2.605469 61.203125 7.03125 40.800781 21.445312 C 16.09375 38.898438 4.640625 69.21875 6.757812 111.566406 C 7.429688 125.011719 14.953125 165.921875 26.796875 204.71875 C 33.601562 227.015625 40.859375 245.535156 48.367188 259.761719 C 59.015625 279.9375 70.40625 291.816406 83.195312 296.085938 C 90.363281 298.472656 103.386719 300.144531 117.085938 288.738281 C 118.824219 290.839844 121.140625 292.929688 124.214844 294.871094 C 128.117188 297.332031 132.890625 299.34375 137.660156 300.535156 C 154.84375 304.832031 170.941406 303.757812 184.671875 297.738281 C 184.753906 300.179688 184.820312 302.511719 184.875 304.527344 C 184.96875 307.796875 185.058594 311 185.175781 313.996094 C 185.992188 334.261719 187.371094 350.015625 191.453125 361.039062 C 191.679688 361.648438 191.980469 362.570312 192.300781 363.550781 C 194.335938 369.789062 197.746094 380.234375 206.414062 388.417969 C 215.390625 396.890625 226.25 399.488281 236.195312 399.488281 C 241.183594 399.488281 245.941406 398.835938 250.117188 397.941406 C 264.996094 394.753906 281.894531 389.894531 294.117188 372.488281 C 305.675781 356.035156 311.292969 331.25 312.308594 292.199219 C 312.441406 291.09375 312.5625 290.042969 312.679688 289.035156 C 312.761719 288.359375 312.839844 287.664062 312.921875 286.972656 L 315.644531 287.210938 L 316.347656 287.257812 C 331.5 287.949219 350.03125 284.734375 361.414062 279.449219 C 370.40625 275.277344 399.222656 260.0625 392.4375 239.523438 "/>
<path style=" stroke:none;fill-rule:nonzero;fill:rgb(20%,40.392157%,56.862745%);fill-opacity:1;" d="M 366.523438 243.519531 C 321.464844 252.8125 318.367188 237.558594 318.367188 237.558594 C 365.941406 166.960938 385.832031 77.351562 368.667969 55.417969 C 321.84375 -4.40625 240.789062 23.886719 239.4375 24.621094 L 239.003906 24.699219 C 230.101562 22.851562 220.136719 21.75 208.941406 21.566406 C 188.550781 21.234375 173.085938 26.914062 161.347656 35.8125 C 161.347656 35.8125 16.757812 -23.753906 23.484375 110.726562 C 24.914062 139.339844 64.488281 327.203125 111.691406 270.460938 C 128.945312 249.710938 145.617188 232.164062 145.617188 232.164062 C 153.894531 237.664062 163.808594 240.472656 174.199219 239.464844 L 175.003906 238.777344 C 174.753906 241.355469 174.871094 243.875 175.328125 246.859375 C 163.167969 260.445312 166.742188 262.828125 142.433594 267.832031 C 117.835938 272.902344 132.285156 281.929688 141.71875 284.285156 C 153.15625 287.148438 179.617188 291.199219 197.496094 266.171875 L 196.785156 269.027344 C 201.546875 272.84375 204.894531 293.847656 204.332031 312.890625 C 203.773438 331.9375 203.398438 345.007812 207.152344 355.222656 C 210.90625 365.433594 214.648438 388.410156 246.605469 381.5625 C 273.308594 375.839844 287.144531 361.011719 289.070312 336.277344 C 290.4375 318.691406 293.527344 321.289062 293.722656 305.570312 L 296.203125 298.125 C 299.0625 274.289062 296.65625 266.597656 313.109375 270.175781 L 317.105469 270.523438 C 329.214844 271.078125 345.0625 268.578125 354.363281 264.253906 C 374.390625 254.960938 386.269531 239.441406 366.523438 243.519531 "/>
<path style=" stroke:none;fill-rule:nonzero;fill:rgb(100%,100%,100%);fill-opacity:1;" d="M 169.8125 123.523438 C 165.753906 122.957031 162.074219 123.480469 160.214844 124.890625 C 159.167969 125.683594 158.84375 126.601562 158.757812 127.230469 C 158.523438 128.90625 159.695312 130.757812 160.417969 131.710938 C 162.457031 134.414062 165.433594 136.273438 168.382812 136.683594 C 168.8125 136.742188 169.234375 136.769531 169.660156 136.769531 C 174.578125 136.769531 179.046875 132.941406 179.441406 130.113281 C 179.933594 126.574219 174.796875 124.214844 169.8125 123.523438 "/>
<path style=" stroke:none;fill-rule:nonzero;fill:rgb(100%,100%,100%);fill-opacity:1;" d="M 304.335938 123.636719 L 304.332031 123.636719 C 303.945312 120.859375 299.007812 120.070312 294.324219 120.722656 C 289.644531 121.371094 285.109375 123.484375 285.488281 126.265625 C 285.792969 128.425781 289.695312 132.117188 294.316406 132.117188 C 294.707031 132.117188 295.101562 132.09375 295.496094 132.035156 C 298.582031 131.609375 300.847656 129.648438 301.921875 128.519531 C 303.558594 126.800781 304.507812 124.882812 304.335938 123.636719 "/>
<path style=" stroke:none;fill-rule:nonzero;fill:rgb(100%,100%,100%);fill-opacity:1;" d="M 381.519531 242.460938 C 379.800781 237.265625 374.269531 235.59375 365.082031 237.492188 C 337.800781 243.121094 328.03125 239.222656 324.824219 236.859375 C 346.027344 204.554688 363.472656 165.507812 372.882812 129.078125 C 377.339844 111.820312 379.804688 95.792969 380.003906 82.730469 C 380.226562 68.390625 377.785156 57.855469 372.75 51.417969 C 352.441406 25.472656 322.640625 11.554688 286.5625 11.171875 C 261.761719 10.890625 240.808594 17.238281 236.746094 19.023438 C 228.191406 16.894531 218.863281 15.589844 208.710938 15.421875 C 190.09375 15.121094 174 19.582031 160.675781 28.664062 C 154.886719 26.511719 139.929688 21.378906 121.636719 18.429688 C 90.011719 13.339844 64.882812 17.195312 46.949219 29.902344 C 25.550781 45.0625 15.671875 72.160156 17.585938 110.445312 C 18.230469 123.328125 25.570312 162.953125 37.152344 200.898438 C 52.398438 250.84375 68.96875 279.117188 86.40625 284.933594 C 88.445312 285.613281 90.800781 286.089844 93.394531 286.089844 C 99.757812 286.089844 107.554688 283.222656 115.667969 273.46875 C 129.144531 257.257812 141.730469 243.667969 146.367188 238.734375 C 153.222656 242.414062 160.75 244.464844 168.453125 244.671875 C 168.46875 244.875 168.488281 245.074219 168.503906 245.277344 C 166.960938 247.109375 165.691406 248.714844 164.613281 250.085938 C 159.277344 256.859375 158.164062 258.269531 140.988281 261.808594 C 136.101562 262.816406 123.121094 265.492188 122.933594 274.585938 C 122.726562 284.527344 138.273438 288.699219 140.046875 289.144531 C 146.21875 290.6875 152.164062 291.449219 157.835938 291.449219 C 171.628906 291.449219 183.765625 286.917969 193.46875 278.148438 C 193.167969 313.578125 194.644531 348.496094 198.898438 359.132812 C 202.382812 367.839844 210.894531 389.125 237.785156 389.125 C 241.730469 389.125 246.074219 388.664062 250.851562 387.640625 C 278.914062 381.625 291.097656 369.222656 295.8125 341.878906 C 298.335938 327.265625 302.664062 292.371094 304.699219 273.652344 C 308.996094 274.992188 314.527344 275.605469 320.507812 275.605469 C 332.980469 275.605469 347.375 272.953125 356.398438 268.765625 C 366.539062 264.058594 384.835938 252.5 381.519531 242.460938 Z M 314.691406 115.976562 C 314.597656 121.503906 313.835938 126.519531 313.03125 131.757812 C 312.164062 137.386719 311.265625 143.210938 311.039062 150.277344 C 310.816406 157.15625 311.675781 164.308594 312.507812 171.226562 C 314.1875 185.195312 315.910156 199.578125 309.242188 213.769531 C 308.203125 211.925781 307.203125 209.917969 306.285156 207.695312 C 305.457031 205.683594 303.65625 202.457031 301.167969 197.988281 C 291.46875 180.601562 268.765625 139.886719 280.386719 123.269531 C 283.851562 118.324219 292.636719 113.238281 314.691406 115.976562 Z M 287.957031 22.359375 C 320.28125 23.074219 345.851562 35.167969 363.953125 58.300781 C 377.839844 76.042969 362.550781 156.78125 318.289062 226.433594 C 317.851562 225.878906 317.40625 225.316406 316.945312 224.742188 C 316.761719 224.511719 316.574219 224.277344 316.386719 224.042969 C 327.824219 205.152344 325.585938 186.464844 323.59375 169.894531 C 322.777344 163.09375 322.003906 156.671875 322.203125 150.636719 C 322.40625 144.242188 323.25 138.757812 324.066406 133.457031 C 325.074219 126.921875 326.09375 120.160156 325.8125 112.1875 C 326.023438 111.351562 326.109375 110.363281 326 109.191406 C 325.277344 101.546875 316.550781 78.671875 298.761719 57.960938 C 289.035156 46.636719 274.84375 33.964844 255.46875 25.414062 C 263.804688 23.6875 275.199219 22.078125 287.957031 22.359375 Z M 107.082031 266.332031 C 98.144531 277.078125 91.96875 275.019531 89.9375 274.34375 C 76.710938 269.929688 61.363281 241.972656 47.832031 197.640625 C 36.121094 159.277344 29.28125 120.703125 28.738281 109.886719 C 27.027344 75.679688 35.320312 51.835938 53.386719 39.027344 C 82.785156 18.175781 131.125 30.65625 150.546875 36.984375 C 150.265625 37.261719 149.976562 37.519531 149.699219 37.796875 C 117.828125 69.988281 118.582031 124.980469 118.660156 128.34375 C 118.660156 129.640625 118.769531 131.476562 118.917969 134 C 119.464844 143.25 120.484375 160.464844 117.761719 179.960938 C 115.226562 198.078125 120.808594 215.8125 133.078125 228.613281 C 134.347656 229.9375 135.675781 231.179688 137.042969 232.351562 C 131.582031 238.199219 119.714844 251.132812 107.082031 266.332031 Z M 141.140625 220.886719 C 131.253906 210.570312 126.761719 196.21875 128.820312 181.507812 C 131.699219 160.914062 130.632812 142.976562 130.0625 133.339844 C 129.984375 131.992188 129.914062 130.8125 129.871094 129.878906 C 134.527344 125.75 156.105469 114.1875 171.492188 117.714844 C 178.515625 119.324219 182.792969 124.105469 184.570312 132.328125 C 193.777344 174.910156 185.789062 192.65625 179.371094 206.917969 C 178.046875 209.855469 176.800781 212.632812 175.730469 215.507812 L 174.90625 217.726562 C 172.808594 223.34375 170.863281 228.5625 169.652344 233.523438 C 159.144531 233.488281 148.917969 229 141.140625 220.886719 Z M 142.753906 278.3125 C 139.683594 277.542969 136.925781 276.210938 135.304688 275.105469 C 136.65625 274.46875 139.066406 273.605469 143.242188 272.746094 C 163.449219 268.585938 166.570312 265.648438 173.382812 256.996094 C 174.949219 255.011719 176.71875 252.761719 179.171875 250.023438 C 179.171875 250.019531 179.171875 250.019531 179.171875 250.019531 C 182.828125 245.929688 184.5 246.621094 187.527344 247.878906 C 189.984375 248.894531 192.375 251.972656 193.347656 255.363281 C 193.804688 256.960938 194.320312 260 192.636719 262.363281 C 178.398438 282.296875 157.652344 282.039062 142.753906 278.3125 Z M 248.511719 376.722656 C 223.789062 382.019531 215.035156 369.40625 209.269531 354.988281 C 205.546875 345.675781 203.714844 303.699219 205.015625 257.339844 C 205.03125 256.722656 204.941406 256.125 204.773438 255.566406 C 204.625 254.484375 204.398438 253.390625 204.082031 252.289062 C 202.152344 245.546875 197.445312 239.902344 191.804688 237.5625 C 189.5625 236.632812 185.445312 234.929688 180.5 236.195312 C 181.554688 231.847656 183.382812 226.941406 185.367188 221.628906 L 186.199219 219.394531 C 187.136719 216.875 188.308594 214.261719 189.554688 211.5 C 196.269531 196.578125 205.46875 176.140625 195.484375 129.96875 C 191.746094 112.675781 179.257812 104.230469 160.328125 106.191406 C 148.976562 107.367188 138.59375 111.945312 133.417969 114.570312 C 132.304688 115.136719 131.285156 115.679688 130.332031 116.210938 C 131.777344 98.785156 137.238281 66.222656 157.667969 45.621094 C 170.527344 32.648438 187.65625 26.242188 208.527344 26.589844 C 249.648438 27.261719 276.019531 48.367188 290.902344 65.949219 C 303.722656 81.105469 310.667969 96.371094 313.441406 104.601562 C 292.597656 102.484375 278.425781 106.597656 271.238281 116.871094 C 255.605469 139.214844 279.792969 182.585938 291.414062 203.429688 C 293.546875 207.25 295.386719 210.550781 295.964844 211.953125 C 299.75 221.125 304.648438 227.25 308.226562 231.71875 C 309.324219 233.089844 310.386719 234.417969 311.195312 235.578125 C 304.882812 237.398438 293.546875 241.601562 294.578125 262.617188 C 293.746094 273.164062 287.820312 322.539062 284.808594 339.980469 C 280.835938 363.027344 272.355469 371.609375 248.511719 376.722656 Z M 351.699219 258.636719 C 345.242188 261.632812 334.441406 263.882812 324.179688 264.363281 C 312.847656 264.894531 307.078125 263.09375 305.722656 261.988281 C 305.082031 248.890625 309.960938 247.519531 315.117188 246.074219 C 315.929688 245.84375 316.71875 245.625 317.484375 245.355469 C 317.957031 245.742188 318.476562 246.125 319.046875 246.5 C 328.15625 252.511719 344.402344 253.164062 367.339844 248.429688 C 367.425781 248.410156 367.507812 248.394531 367.59375 248.375 C 364.5 251.269531 359.203125 255.152344 351.699219 258.636719 Z M 351.699219 258.636719 "/>
</g>
</svg>
