<?xml version="1.0" encoding="UTF-8"?>
<svg xmlns="http://www.w3.org/2000/svg" xmlns:xlink="http://www.w3.org/1999/xlink" width="400" height="400" viewBox="0 0 400 400" version="1.1">
<defs>
<linearGradient id="linear0" gradientUnits="userSpaceOnUse" x1="2.983" y1="0.53" x2="2.983" y2="4.744" gradientTransform="matrix(61.022121,0,0,61.022121,0.0305111,0)">
<stop offset="0" style="stop-color:rgb(59.215686%,85.098039%,96.470588%);stop-opacity:1;"/>
<stop offset="0.92024" style="stop-color:rgb(5.882353%,50.196078%,80%);stop-opacity:1;"/>
<stop offset="1" style="stop-color:rgb(5.882353%,50.196078%,80%);stop-opacity:1;"/>
</linearGradient>
</defs>
<g id="surface1">
<path style=" stroke:none;fill-rule:nonzero;fill:rgb(5.882353%,50.196078%,80%);fill-opacity:1;" d="M 302.699219 17.695312 L 51.714844 17.695312 C 34.875 17.695312 21.207031 31.488281 21.207031 48.207031 L 21.207031 325.003906 C 21.207031 341.847656 34.996094 355.515625 51.714844 355.515625 L 217.085938 355.515625 C 215.253906 273.257812 243.324219 113.625 302.761719 17.453125 Z M 302.699219 17.695312 "/>
<path style=" stroke:none;fill-rule:nonzero;fill:url(#linear0);" d="M 293.546875 26.667969 L 51.714844 26.667969 C 39.757812 26.667969 30.054688 36.429688 30.054688 48.328125 L 30.054688 304.925781 C 84.851562 283.875 167.046875 265.75 223.921875 266.605469 C 241.453125 185.082031 264.742188 104.898438 293.609375 26.667969 Z M 293.546875 26.667969 "/>
<path style=" stroke:none;fill-rule:nonzero;fill:rgb(0%,23.137255%,34.117647%);fill-opacity:1;" d="M 361.28125 8.664062 C 344.074219 -6.589844 323.265625 -0.488281 302.699219 17.695312 L 293.546875 26.605469 C 258.398438 63.828125 226.421875 132.90625 215.683594 185.691406 C 219.507812 194.050781 222.53125 202.753906 224.714844 211.6875 L 226.054688 217.789062 L 227.398438 224.011719 C 227.398438 224.011719 227.09375 222.792969 225.8125 219.128906 L 224.957031 216.691406 C 224.785156 216.238281 224.601562 215.789062 224.410156 215.347656 C 222.089844 210.039062 215.867188 198.75 212.996094 193.867188 C 210.777344 200.355469 208.683594 206.886719 206.710938 213.457031 C 214.765625 228.222656 219.648438 253.484375 219.648438 253.484375 C 219.648438 253.484375 219.222656 251.839844 217.207031 246.164062 C 215.378906 241.097656 206.46875 225.414062 204.394531 221.753906 C 200.730469 235.179688 199.328125 244.210938 200.609375 246.40625 C 203.050781 250.679688 205.492188 258.613281 207.628906 266.179688 C 210.921875 279.597656 213.609375 293.15625 215.683594 306.820312 L 215.988281 310.601562 C 215.355469 325.863281 215.660156 341.148438 216.902344 356.371094 C 218.488281 375.46875 221.480469 391.882812 225.261719 400.671875 L 227.824219 399.269531 C 222.335938 381.9375 220.015625 359.296875 220.992188 333.121094 C 222.515625 293.148438 231.671875 244.941406 248.695312 194.722656 C 277.558594 118.261719 317.34375 57.359375 353.835938 28.3125 C 320.578125 58.335938 275.605469 155.484375 262.179688 191.425781 C 247.109375 231.699219 236.429688 269.535156 229.960938 305.722656 C 241.066406 271.792969 276.949219 257.148438 276.949219 257.148438 C 276.949219 257.148438 294.644531 235.421875 315.148438 204.363281 L 275.789062 214.859375 L 263.097656 220.472656 C 263.097656 220.472656 295.4375 200.761719 323.324219 191.792969 C 361.585938 131.5625 403.265625 45.949219 361.28125 8.605469 "/>
</g>
</svg>
