<?xml version="1.0" encoding="UTF-8"?>
<svg xmlns="http://www.w3.org/2000/svg" xmlns:xlink="http://www.w3.org/1999/xlink" width="400" height="400" viewBox="0 0 400 400" version="1.1">
<g id="surface1">
<path style=" stroke:none;fill-rule:nonzero;fill:rgb(26.666667%,26.666667%,26.666667%);fill-opacity:1;" d="M 235.25 193.835938 L 176.386719 213.039062 L 125.210938 235.636719 L 110.875 239.425781 C 107.238281 242.875 103.386719 246.386719 99.273438 249.960938 C 94.761719 253.886719 90.511719 257.449219 87.289062 260.023438 C 83.6875 262.886719 78.351562 268.199219 75.613281 271.601562 C 71.550781 276.664062 68.363281 282.0625 67 286.199219 C 64.539062 293.664062 65.738281 301.226562 70.488281 308.210938 C 76.550781 317.125 88.601562 326.1875 102.636719 332.351562 C 109.789062 335.5 121.863281 339.550781 130.925781 341.835938 C 146.011719 345.648438 175.175781 349.789062 191.226562 350.398438 C 194.488281 350.523438 198.8125 350.511719 199.011719 350.375 C 199.363281 350.136719 201.863281 345.414062 204.761719 339.488281 C 214.636719 319.324219 221.773438 300.425781 225.613281 284.289062 C 227.9375 274.511719 229.75 261.476562 230.925781 246.023438 C 231.25 241.699219 231.375 227.261719 231.125 222.351562 C 230.710938 214.363281 230.011719 207.851562 228.886719 201.476562 C 228.726562 200.539062 228.664062 199.710938 228.75 199.636719 C 228.914062 199.5 229.476562 199.324219 236.699219 197.210938 L 235.261719 193.835938 Z M 221.800781 201.726562 C 222.335938 201.726562 223.761719 215.363281 224.125 224.023438 C 224.199219 225.863281 224.1875 227.039062 224.074219 227.039062 C 223.726562 227.039062 216.539062 222.8125 211.4375 219.613281 C 206.988281 216.8125 198.550781 211.210938 197.199219 210.148438 C 196.773438 209.8125 196.824219 209.800781 200.460938 208.550781 C 206.648438 206.414062 221.324219 201.710938 221.789062 201.710938 Z M 191.8125 211.574219 C 192.1875 211.574219 193.226562 212.148438 195.675781 213.675781 C 204.863281 219.425781 217.289062 226.351562 222.613281 228.675781 C 224.261719 229.398438 224.449219 229.113281 220.648438 231.699219 C 212.539062 237.210938 202.460938 242.625 190.074219 248.125 C 187.914062 249.085938 186.085938 249.863281 186.011719 249.863281 C 185.9375 249.863281 186.175781 248.761719 186.539062 247.425781 C 189.539062 236.335938 191.226562 225.136719 191.273438 216.148438 C 191.300781 211.710938 191.300781 211.6875 191.726562 211.574219 C 191.75 211.574219 191.773438 211.5625 191.800781 211.5625 Z M 185.648438 213.925781 C 185.914062 214.1875 185.726562 224.136719 185.398438 226.851562 C 184.625 233.351562 183.351562 239.375 181.3125 246.210938 C 180.824219 247.851562 180.375 249.261719 180.300781 249.335938 C 180.125 249.539062 174.039062 243.613281 172.011719 241.261719 C 168.550781 237.25 165.824219 233.273438 163.824219 229.351562 C 162.8125 227.363281 161.199219 223.414062 161.351562 223.3125 C 162.039062 222.8125 185.476562 213.75 185.648438 213.925781 Z M 156.574219 225.386719 C 156.625 225.386719 156.675781 225.414062 156.699219 225.4375 C 156.789062 225.539062 157.101562 226.261719 157.386719 227.050781 C 158.800781 230.898438 161.988281 236.625 164.761719 240.273438 C 167.789062 244.273438 171.726562 248.523438 175.023438 251.351562 C 176.085938 252.261719 177.074219 253.101562 177.210938 253.226562 C 177.5 253.476562 177.585938 253.4375 170.335938 256.1875 C 161.925781 259.375 152.761719 262.574219 142.25 265.976562 C 138.238281 267.273438 134.851562 268.363281 134.726562 268.414062 C 134.324219 268.5625 134.449219 268.3125 135.613281 266.488281 C 140.835938 258.324219 148.75 242.375 153.175781 231.085938 C 153.9375 229.125 154.675781 227.175781 154.800781 226.726562 C 154.988281 226.074219 155.1875 225.863281 155.789062 225.585938 C 156.125 225.4375 156.414062 225.363281 156.574219 225.386719 Z M 147.664062 229.0625 C 147.773438 229.164062 145.523438 233.925781 143.300781 238.261719 C 139 246.664062 134.25 254.925781 127.949219 265.011719 C 126.863281 266.75 125.863281 268.351562 125.726562 268.539062 C 125.5 268.863281 125.414062 268.75 124.726562 267.386719 C 123.210938 264.386719 121.949219 260.601562 121.300781 257.085938 C 120.648438 253.601562 120.761719 247.574219 121.539062 243.824219 C 122.113281 241.050781 122.085938 241.113281 123.398438 240.4375 C 129.0625 237.539062 147.476562 228.914062 147.664062 229.074219 Z M 224.398438 232.175781 L 224.398438 234.0625 C 224.386719 243.988281 223.335938 257.574219 221.789062 267.488281 C 221.511719 269.226562 221.289062 270.664062 221.261719 270.675781 C 221.238281 270.6875 219.988281 270.324219 218.476562 269.851562 C 211.800781 267.773438 204.550781 264.675781 198.023438 261.101562 C 193.699219 258.726562 187.4375 254.886719 187.613281 254.710938 C 187.664062 254.664062 189.5 253.6875 191.710938 252.539062 C 200.449219 248 208.789062 243.113281 216.050781 238.261719 C 218.773438 236.449219 222.851562 233.5 223.75 232.699219 L 224.386719 232.136719 Z M 114.0625 245.335938 C 114.238281 245.324219 114.199219 245.675781 113.914062 247.3125 C 113.710938 248.449219 113.488281 250.601562 113.414062 252.085938 C 113.050781 258.585938 114.113281 263.386719 117.335938 269.960938 C 118.238281 271.789062 118.9375 273.3125 118.898438 273.335938 C 118.574219 273.613281 89.148438 282.210938 79.898438 284.75 C 77.164062 285.5 74.761719 286.164062 74.5625 286.226562 C 74.238281 286.324219 74.210938 286.25 74.324219 285.5 C 75.335938 278.976562 80.3125 270.414062 87.273438 263.210938 C 91.898438 258.425781 95.601562 255.601562 101.898438 252 C 106.425781 249.425781 113.4375 245.550781 113.949219 245.351562 C 113.988281 245.335938 114.011719 245.335938 114.050781 245.335938 Z M 183.460938 257.761719 C 183.488281 257.726562 184.574219 258.3125 185.886719 259.0625 C 195.386719 264.5625 208.648438 269.710938 219.960938 272.300781 L 220.988281 272.539062 L 219.585938 273.324219 C 213.675781 276.601562 194.226562 284.699219 174.363281 292.148438 C 171.460938 293.238281 168.636719 294.300781 168.074219 294.523438 C 167.511719 294.75 167.074219 294.898438 167.074219 294.851562 C 167.074219 294.800781 167.898438 293.226562 168.898438 291.351562 C 174.476562 280.925781 180.050781 268.25 182.898438 259.449219 C 183.1875 258.550781 183.449219 257.800781 183.476562 257.761719 Z M 176.386719 260.074219 C 176.414062 260.101562 176.074219 261.039062 175.613281 262.136719 C 171.738281 271.511719 166.664062 281.738281 160.175781 293.226562 C 158.523438 296.148438 157.136719 298.539062 157.085938 298.523438 C 157.039062 298.511719 155.699219 297.726562 154.113281 296.75 C 144.675781 290.976562 136.324219 283.863281 130.851562 276.949219 L 130.0625 275.976562 L 134.125 274.863281 C 148.636719 270.886719 160.9375 266.636719 173.175781 261.363281 C 174.914062 260.613281 176.351562 260.023438 176.375 260.0625 Z M 220.335938 275.425781 C 220.363281 275.425781 220.363281 275.449219 220.363281 275.460938 C 220.363281 276.449219 218.113281 285.601562 216.25 292.226562 C 214.6875 297.789062 213.363281 302.125 210.925781 309.824219 C 209.851562 313.226562 208.925781 316 208.863281 315.988281 C 208.800781 315.976562 208.550781 315.925781 208.289062 315.875 C 195.074219 313.488281 183.226562 310.148438 172.136719 305.6875 C 169.039062 304.4375 164.550781 302.449219 164.3125 302.226562 C 164.238281 302.148438 166.914062 300.886719 170.261719 299.425781 C 190.511719 290.585938 211.5 280.523438 218.675781 276.210938 C 219.539062 275.699219 220.175781 275.386719 220.324219 275.425781 Z M 118.886719 278.898438 C 119 279 113.324219 287.113281 105.414062 298.1875 C 102.664062 302.039062 99.425781 306.574219 98.238281 308.273438 C 97.050781 309.976562 95.238281 312.648438 94.210938 314.238281 L 92.335938 317.125 L 90.351562 315.449219 C 88.011719 313.488281 83.925781 309.324219 82.0625 307.011719 C 78.238281 302.25 75.648438 297.238281 74.636719 292.636719 C 74.164062 290.511719 74.148438 289.4375 74.601562 289.300781 C 75.25 289.101562 87.125 286.3125 98.273438 283.726562 C 104.460938 282.289062 111.625 280.613281 114.1875 279.988281 C 116.75 279.363281 118.875 278.886719 118.898438 278.914062 Z M 124.585938 281.074219 L 126.023438 282.675781 C 132.4375 289.8125 138.949219 295.136719 146.898438 299.738281 C 148.300781 300.550781 149.375 301.25 149.289062 301.3125 C 148.960938 301.511719 121.789062 311.175781 109.226562 315.5625 C 102.136719 318.039062 96.3125 320.039062 96.289062 320.039062 C 96.261719 320.039062 95.851562 319.773438 95.398438 319.449219 L 94.574219 318.863281 L 95.863281 317.011719 C 100.039062 310.976562 105.273438 304.335938 116.738281 290.539062 L 124.601562 281.074219 Z M 160.085938 306.449219 C 160.125 306.414062 162.101562 307.113281 164.511719 308.011719 C 170.3125 310.175781 174.851562 311.585938 181.011719 313.136719 C 188.574219 315.023438 199.488281 316.925781 205.960938 317.460938 C 206.949219 317.550781 207.460938 317.664062 207.300781 317.761719 C 207 317.949219 200.449219 320.136719 195.636719 321.648438 C 188 324.050781 164.636719 330.949219 145.585938 336.4375 C 142.050781 337.449219 139.039062 338.3125 138.875 338.351562 C 138.449219 338.4375 136.960938 338.050781 136.960938 337.851562 C 136.960938 337.75 138.023438 336.398438 139.324219 334.851562 C 145.726562 327.1875 152.085938 318.636719 157.398438 310.550781 C 158.851562 308.335938 160.0625 306.488281 160.101562 306.449219 Z M 152.226562 306.675781 C 152.289062 306.738281 149.125 311.789062 143.574219 320.523438 C 141.226562 324.210938 138.574219 328.414062 137.664062 329.863281 C 136.75 331.3125 135.414062 333.5 134.699219 334.75 L 133.398438 337.023438 L 132.738281 336.851562 C 131.136719 336.414062 119.886719 332.449219 116.925781 331.261719 C 113.238281 329.800781 109.398438 328.039062 106.574219 326.5 C 103.039062 324.585938 98.550781 321.75 98.898438 321.636719 C 99 321.601562 105.085938 319.9375 112.414062 317.9375 C 131.914062 312.625 142.699219 309.574219 149.773438 307.363281 C 151.101562 306.949219 152.199219 306.636719 152.226562 306.664062 Z M 207.613281 319.664062 C 207.648438 319.648438 207.675781 319.648438 207.675781 319.664062 C 207.863281 320.125 200.636719 340.113281 198 346.449219 C 197.414062 347.875 197.1875 348.210938 196.886719 348.199219 C 196.136719 348.164062 185.675781 346.699219 179.335938 345.738281 C 168.25 344.050781 149.675781 340.8125 144.988281 339.738281 L 143.898438 339.5 L 150.550781 338 C 164.800781 334.789062 171.636719 333.0625 178.574219 330.949219 C 187.324219 328.273438 196 324.925781 204.75 320.863281 C 206.136719 320.210938 207.3125 319.726562 207.613281 319.664062 Z M 174.585938 56.664062 C 173.601562 56.550781 157.800781 62.238281 147.648438 66.363281 C 133.898438 71.949219 123.226562 77.300781 116.636719 81.925781 C 114.1875 83.648438 111.101562 86.738281 110.648438 87.925781 C 110.476562 88.375 110.398438 88.886719 110.398438 89.425781 L 116.375 95.0625 L 130.550781 99.585938 L 164.324219 105.625 L 202.925781 112.261719 L 203.3125 108.949219 C 203.199219 108.925781 203.085938 108.914062 202.960938 108.898438 L 197.875 108.101562 L 196.835938 106.289062 C 191.585938 97.023438 185.789062 85.574219 182.425781 77.824219 C 179.8125 71.824219 177.3125 64.898438 175.925781 59.898438 C 175.101562 56.925781 175.011719 56.738281 174.550781 56.675781 Z M 173.851562 58.949219 C 173.886719 58.9375 173.914062 58.9375 173.914062 58.949219 C 173.9375 58.988281 174.125 60.226562 174.300781 61.710938 C 175.0625 67.925781 176.449219 73.960938 178.625 80.449219 C 180.261719 85.335938 180.289062 85.050781 178.335938 84.511719 C 173.800781 83.25 153.460938 79.75 138.75 77.710938 C 136.375 77.386719 134.398438 77.085938 134.375 77.0625 C 134.1875 76.875 144.988281 71.210938 149.773438 68.988281 C 155.914062 66.125 172.636719 59.175781 173.851562 58.949219 Z M 130.976562 78.863281 L 132.699219 79.449219 C 142.148438 82.664062 165.824219 87.1875 178.914062 88.273438 C 180.386719 88.398438 181.625 88.523438 181.664062 88.5625 C 181.699219 88.601562 180.449219 89.261719 178.875 90.050781 C 172.5625 93.210938 165.613281 97.0625 160.800781 100.074219 C 159.386719 100.960938 158.101562 101.675781 157.925781 101.664062 C 157.75 101.648438 156.824219 101.5 155.851562 101.335938 L 154.074219 101.050781 L 149.613281 96.710938 C 141.761719 89.125 135.636719 83.25 133.273438 81.023438 Z M 129.226562 80.261719 L 135.476562 88.074219 C 138.914062 92.375 142.375 96.636719 143.136719 97.550781 C 143.898438 98.460938 144.5 99.25 144.460938 99.273438 C 144.289062 99.398438 135.398438 97.675781 130.6875 96.585938 C 125.851562 95.476562 123.851562 94.949219 120.863281 93.988281 L 118.425781 93.199219 L 118.4375 92.601562 C 118.460938 89.601562 122.25 85.175781 128.664062 80.648438 L 129.238281 80.261719 Z M 182.5 90.898438 C 182.6875 90.914062 182.886719 91.300781 183.4375 92.511719 C 184.949219 95.835938 189.675781 104.851562 190.824219 106.585938 C 191.199219 107.164062 191.800781 107.199219 185.523438 106.1875 C 170.460938 103.75 165.585938 102.9375 165.585938 102.851562 C 165.585938 102.789062 166.039062 102.5 166.585938 102.1875 C 171.25 99.585938 175.960938 96.324219 180.148438 92.800781 C 181.148438 91.949219 182.113281 91.148438 182.289062 91 C 182.363281 90.9375 182.425781 90.898438 182.488281 90.914062 Z M 110.925781 87.324219 C 110.925781 87.324219 109.949219 88.875 110.875 91.175781 C 111.449219 92.601562 113.164062 94.3125 115.050781 96.125 C 115.050781 96.125 134.824219 115.414062 137.238281 118.210938 C 148.1875 130.851562 152.949219 143.300781 153.386719 160.488281 C 153.675781 171.511719 151.539062 181.210938 146.375 192.476562 C 137.113281 212.664062 117.613281 234.9375 87.488281 259.699219 L 91.914062 258.238281 C 94.75 256.113281 98.613281 253.835938 107.726562 248.851562 C 128.6875 237.375 152.238281 226.824219 181.164062 215.960938 C 222.773438 200.324219 291.238281 181.976562 330.1875 176.011719 L 334.25 175.386719 L 333.625 174.414062 C 330.0625 168.875 327.636719 165.460938 324.710938 161.851562 C 316.175781 151.289062 305.824219 142.664062 293.148438 135.574219 C 275.738281 125.824219 253.148438 118.25 224.601562 112.574219 C 219.199219 111.5 207.375 109.476562 197.761719 107.976562 C 177.386719 104.800781 164.25 102.648438 149.726562 100.125 C 144.523438 99.226562 136.75 97.914062 131.585938 96.800781 C 128.898438 96.226562 123.789062 95.011719 119.824219 93.636719 C 116.550781 92.351562 111.925781 91.101562 110.949219 87.335938 Z M 122.386719 98.449219 C 122.414062 98.425781 123.164062 98.648438 124.0625 98.960938 C 125.726562 99.523438 127.9375 100.1875 130.5 100.914062 C 132.300781 101.414062 134.273438 101.9375 136.363281 102.476562 C 139.039062 103.164062 141.25 103.75 141.273438 103.773438 C 141.574219 104.113281 146.0625 118.449219 147.601562 123.949219 C 148.1875 126.050781 148.625 127.800781 148.585938 127.835938 C 148.550781 127.875 148.050781 127.101562 147.488281 126.125 C 142.289062 116.988281 134.0625 107.6875 124.539062 100.210938 C 123.351562 99.273438 122.386719 98.488281 122.386719 98.449219 Z M 144.289062 104.5 C 144.511719 104.488281 145.5 104.648438 146.675781 104.914062 C 154.25 106.585938 167.789062 109.199219 176.488281 110.664062 C 177.9375 110.914062 179.125 111.175781 179.125 111.25 C 179.125 111.324219 178.585938 111.675781 177.925781 112 C 176.460938 112.738281 170.550781 116.273438 168.574219 117.601562 C 163.636719 120.898438 159.199219 124.4375 155.976562 127.648438 C 154.675781 128.9375 153.585938 130 153.550781 130 C 153.511719 130 153.289062 129.25 153.050781 128.324219 C 151.4375 122.136719 148.085938 112.988281 145.101562 106.550781 C 144.613281 105.511719 144.226562 104.601562 144.226562 104.523438 C 144.226562 104.511719 144.238281 104.511719 144.273438 104.5 Z M 182.824219 111.824219 C 183.074219 111.914062 183.5625 113.414062 184.414062 116.761719 C 186.039062 123.199219 186.800781 130.4375 186.550781 137.125 C 186.476562 138.988281 186.363281 140.710938 186.289062 140.976562 L 186.148438 141.4375 L 183.851562 140.6875 C 179.113281 139.175781 171.363281 136.886719 164.726562 135.050781 C 160.949219 134 157.863281 133.074219 157.863281 132.988281 C 157.863281 132.710938 163.363281 127.210938 165.726562 125.125 C 170.238281 121.125 182.398438 111.675781 182.824219 111.824219 Z M 185.886719 112.261719 C 186.023438 112.136719 204.300781 115.300781 212.601562 116.886719 C 218.789062 118.074219 227.75 119.949219 228.289062 120.175781 C 228.550781 120.289062 227.625 120.789062 224.648438 122.125 C 212.886719 127.425781 204.175781 132.164062 195.511719 137.960938 C 193.226562 139.488281 191.335938 140.738281 191.300781 140.738281 C 191.261719 140.738281 191.226562 139.460938 191.226562 137.914062 C 191.210938 129.460938 189.539062 120.9375 186.4375 113.738281 C 186.101562 112.960938 185.851562 112.300781 185.886719 112.261719 Z M 233.136719 121.613281 C 233.273438 121.75 232.675781 125.363281 232.164062 127.488281 C 230.550781 134.113281 226.261719 143.949219 220.976562 153.1875 C 220.039062 154.8125 219.210938 156.175781 219.113281 156.199219 C 219.011719 156.226562 217.8125 155.601562 216.4375 154.800781 C 211.261719 151.773438 205.414062 148.914062 198.988281 146.261719 C 197.199219 145.523438 195.664062 144.863281 195.585938 144.789062 C 195.300781 144.511719 209.585938 135.050781 217.164062 130.511719 C 223.226562 126.875 232.976562 121.4375 233.148438 121.613281 Z M 236.511719 122.136719 C 236.925781 122.136719 245.023438 124.351562 249.226562 125.601562 C 259.664062 128.726562 271.710938 133.125 279.511719 136.675781 L 282.761719 138.148438 L 280.476562 138.675781 C 261.363281 143.0625 244.976562 148.136719 229.199219 154.539062 C 227.886719 155.074219 226.75 155.511719 226.664062 155.511719 C 226.574219 155.511719 227 154.5 227.585938 153.261719 C 232.324219 143.1875 235.398438 132.613281 236.1875 123.636719 C 236.261719 122.824219 236.414062 122.164062 236.511719 122.164062 Z M 155.949219 140.664062 C 156.074219 140.539062 162.25 141.976562 165.613281 142.925781 C 170.675781 144.351562 181.4375 147.949219 181.4375 148.226562 C 181.4375 148.273438 180.25 149.3125 178.800781 150.523438 C 172.988281 155.386719 167.375 160.488281 160.648438 166.976562 C 158.664062 168.898438 156.960938 170.460938 156.875 170.460938 C 156.789062 170.460938 156.75 170.175781 156.800781 169.835938 C 157.8125 162.363281 157.601562 152.761719 156.1875 143 C 156.011719 141.761719 155.898438 140.710938 155.949219 140.664062 Z M 285.851562 140.773438 C 285.9375 140.863281 282.988281 145.488281 281.148438 148.125 C 278.460938 151.960938 274.574219 157.011719 265.710938 168.164062 C 261.0625 174.011719 255.8125 180.636719 254.039062 182.875 C 252.261719 185.113281 250.789062 186.949219 250.738281 186.949219 C 250.6875 186.949219 250.125 186.148438 249.476562 185.175781 C 244.476562 177.710938 238.550781 171.164062 231.476562 165.273438 C 230.148438 164.175781 228.664062 162.976562 228.175781 162.601562 C 227.6875 162.226562 227.273438 161.886719 227.273438 161.835938 C 227.273438 161.710938 234.824219 158.476562 240.585938 156.125 C 250.625 152.039062 264.335938 147.148438 274.601562 144 C 280.011719 142.335938 285.761719 140.6875 285.851562 140.773438 Z M 289.261719 141.675781 C 289.425781 141.636719 290.5 142.164062 291.800781 142.898438 C 302.613281 149.085938 313.199219 157.050781 321.539062 165.226562 C 323.914062 167.550781 329.699219 173.574219 329.613281 173.625 C 329.585938 173.636719 327.585938 173.800781 325.164062 173.976562 C 306.425781 175.386719 282.476562 179.363281 259.425781 184.914062 C 257.863281 185.289062 256.5 185.601562 256.414062 185.601562 C 256.324219 185.601562 258.039062 183.875 260.226562 181.789062 C 273.761719 168.773438 279.949219 160.550781 287.210938 145.863281 C 288.300781 143.675781 289.210938 141.789062 289.25 141.675781 C 289.25 141.664062 289.261719 141.664062 289.273438 141.664062 Z M 190.25 151.824219 C 190.863281 151.960938 196.636719 154.648438 201 156.835938 C 204.988281 158.835938 211.023438 162.050781 211.324219 162.324219 C 211.363281 162.363281 209.238281 163.476562 206.601562 164.789062 C 198.238281 168.976562 191.074219 172.914062 183.601562 177.488281 C 181.460938 178.789062 179.6875 179.863281 179.625 179.863281 C 179.4375 179.863281 179.511719 179.699219 180.699219 177.511719 C 184.6875 170.226562 187.886719 161.511719 189.738281 153.011719 C 189.898438 152.25 190.101562 151.789062 190.238281 151.824219 Z M 184.425781 152.863281 C 184.550781 152.988281 183.050781 158.488281 182.101562 161.425781 C 180.273438 167.0625 177.199219 174.148438 174.238281 179.488281 C 173.539062 180.738281 172.476562 182.574219 171.875 183.5625 L 170.773438 185.363281 L 168.273438 182.949219 C 165.375 180.136719 163.011719 178.398438 160 176.835938 C 158.8125 176.226562 157.851562 175.664062 157.851562 175.574219 C 157.835938 175.210938 165.4375 168.300781 171.289062 163.351562 C 175.476562 159.800781 184.3125 152.738281 184.414062 152.851562 Z M 219.789062 167.398438 L 221.960938 168.8125 C 226.9375 172.039062 232.824219 176.386719 237.324219 180.136719 C 239.835938 182.238281 244.738281 186.613281 245.738281 187.675781 L 246.273438 188.238281 L 242.675781 189.238281 C 222.300781 194.886719 206.550781 199.925781 188.1875 206.675781 C 186.148438 207.425781 184.386719 208.050781 184.261719 208.050781 C 184.011719 208.050781 183.761719 208.289062 188.335938 204.0625 C 200.085938 193.25 210.460938 181.335938 218.226562 169.75 Z M 210.5 169.738281 C 210.601562 169.835938 204.476562 178.425781 200.835938 183.273438 C 196.476562 189.074219 188.726562 198.761719 183.386719 205.074219 C 181.164062 207.710938 179.25 209.898438 179.136719 209.9375 C 179.023438 209.976562 178.949219 209.324219 178.949219 208.3125 C 178.9375 202.925781 177.574219 197.175781 175.175781 192.300781 C 174.164062 190.238281 173.988281 189.75 174.199219 189.550781 C 175.039062 188.789062 188 181.398438 196.175781 177.023438 C 201.789062 174.011719 210.398438 169.636719 210.511719 169.75 Z M 154.300781 183.5 C 154.414062 183.5 155.449219 184.023438 156.613281 184.664062 C 159.449219 186.238281 162 187.960938 164.25 189.835938 C 164.335938 189.914062 163.175781 190.863281 161.664062 191.949219 C 157.449219 194.988281 151.023438 199.835938 147.3125 202.800781 C 143.386719 205.925781 143.261719 206.011719 143.699219 205.335938 C 146.636719 200.851562 148.113281 198.300781 149.664062 195.050781 C 151.039062 192.164062 152.398438 188.738281 153.375 185.75 C 153.789062 184.511719 154.199219 183.5 154.3125 183.5 Z M 169.273438 195.25 C 169.476562 195.226562 169.761719 195.601562 170.976562 197.398438 C 173.511719 201.1875 175.449219 206.238281 175.949219 210.363281 L 176.050781 211.25 L 169.976562 213.601562 C 159.0625 217.835938 149.011719 222.011719 142.238281 225.113281 C 140.335938 225.988281 136.988281 227.585938 134.800781 228.675781 C 132.613281 229.761719 130.824219 230.625 130.824219 230.585938 C 130.824219 230.539062 132.199219 229.511719 133.875 228.289062 C 147.1875 218.625 158.675781 208.039062 167.324219 197.449219 C 168.25 196.3125 169.085938 195.335938 169.199219 195.273438 C 169.226562 195.25 169.25 195.25 169.289062 195.25 Z M 162.363281 196.960938 C 162.539062 197.136719 157.449219 202.898438 154.023438 206.386719 C 145.449219 215.148438 136.9375 222.011719 126.398438 228.6875 C 125.085938 229.523438 123.875 230.273438 123.726562 230.375 C 123.4375 230.550781 123.8125 230.113281 128.449219 225.074219 C 131.363281 221.898438 133.601562 219.261719 136.125 215.976562 C 137.789062 213.8125 138.113281 213.5 140.5625 211.738281 C 147.148438 206.988281 162.199219 196.789062 162.375 196.960938 Z M 162.363281 196.960938 "/>
</g>
</svg>
