<svg xmlns="http://www.w3.org/2000/svg" xmlns:xlink="http://www.w3.org/1999/xlink" style="margin:auto;display:block;" viewBox="112.552 48.536 256 256" width="256" height="256" preserveAspectRatio="xMidYMid" shape-rendering="geometricPrecision">
  <path style="stroke: rgb(0, 0, 0); fill: rgb(113, 223, 231); stroke-width: 0px;" d="M 218.077 55.288 L 312.106 200.691 L 257.789 235.613 C 257.789 235.613 216.673 54.795 218.077 55.288 Z" />
  <path style="stroke: rgb(0, 0, 0); fill: rgb(194, 255, 249); stroke-width: 0px;" d="M 286.611 160.669 L 323.431 151.046 L 312.134 201.256 L 286.611 160.669 Z" />
  <path style="stroke: rgb(0, 0, 0); fill: rgb(113, 223, 231); stroke-width: 0px;" d="M 323.432 151.464 L 339.331 175.314 L 318.828 172.803 L 323.432 151.464 Z" />
  <path style="stroke: rgb(0, 0, 0); fill: rgb(194, 255, 249); stroke-width: 0px;" d="M 257.74 235.983 L 159.833 298.744 L 247.698 192.887 L 257.74 235.983 Z" />
  <path style="stroke: rgb(0, 0, 0); fill: rgb(0, 157, 174); stroke-width: 0px;" d="M 159.414 95.398 L 240.167 158.16 L 247.698 192.469 L 229.707 214.226 L 159.414 95.398 Z" />
  <path style="stroke: rgb(0, 0, 0); fill: rgb(0, 157, 174); paint-order: fill; stroke-width: 0px;" d="M 210.879 236.82 L 188.703 262.762 C 188.703 262.762 141.004 274.058 141.004 273.64 C 141.004 273.222 210.461 235.983 210.879 236.82 Z" />
  <path style="stroke: rgb(0, 0, 0); fill: rgb(13, 74, 79);" d="M 323.152 151.046 L 323.151 172.804 L 318.966 173.222 L 323.152 151.046 Z" />
  <path style="stroke: rgb(0, 0, 0); fill: rgb(13, 74, 79);" d="M 286.448 160.506 L 291.469 159.251 L 311.971 201.093 L 286.448 160.506 Z" />
</svg>